<svg width="1664" height="600" viewBox="0 0 1664 600" fill="none" xmlns="http://www.w3.org/2000/svg">
<path d="M369.997 300.023C372.758 300.023 375.005 302.263 374.919 305.023C374.687 312.45 373.936 319.641 372.69 326.817C372.157 329.886 370.137 332.492 367.281 333.738C360.772 336.577 353.906 338.94 346.951 340.904C343.238 341.953 340.381 344.937 339.489 348.691C338.049 354.747 336.311 360.73 334.261 366.564C333.265 369.4 330.969 371.583 328.088 372.442C293.984 382.601 256.01 382.601 221.906 372.442C219.025 371.583 216.729 369.4 215.733 366.564C213.683 360.73 211.944 354.747 210.505 348.691C209.613 344.937 206.756 341.953 203.043 340.904C196.08 338.938 189.206 336.572 182.689 333.728C179.847 332.487 177.83 329.899 177.299 326.844C174.246 309.312 174.216 290.697 177.315 273.166C177.852 270.132 179.857 267.563 182.68 266.326C189.187 263.477 196.08 261.106 203.059 259.137C206.764 258.092 209.618 255.119 210.509 251.375C211.957 245.293 213.693 239.277 215.756 233.431C216.752 230.609 219.039 228.441 221.907 227.585C252.776 218.379 286.936 217.611 318.292 224.966C321.513 225.721 324.098 228.11 325.098 231.264C328.177 240.97 330.434 251.012 332.021 261.142C332.282 262.806 330.835 264.227 329.169 263.976C295.281 258.867 258.791 258.68 224.712 263.413C220.394 264.012 217.016 267.424 216.53 271.756C214.491 289.907 214.502 310.104 216.516 328.271C216.997 332.612 220.378 336.036 224.705 336.636C257.47 341.185 292.496 341.186 325.263 336.64C329.602 336.038 332.988 332.595 333.469 328.241C334.299 320.742 334.801 312.98 334.95 305.023C335.002 302.262 337.235 300.023 339.997 300.023H369.997Z" fill="#FF4202"/>
<path d="M1514.07 349.544H1414.15V260.742H1510.61V280.813H1439.57V295.252H1487.79V315.323H1439.57V329.473H1514.07V349.544Z" fill="#FF4202"/>
<path d="M1397.21 280.813H1355.05V349.544H1329.64V280.813H1287.33V260.742H1397.21V280.813Z" fill="#FF4202"/>
<path d="M1269.25 349.544H1243.84V260.742H1269.25V349.544Z" fill="#FF4202"/>
<path d="M1224.57 349.544H1130.86V260.742H1156.28V329.473H1224.57V349.544Z" fill="#FF4202"/>
<path d="M1118.73 349.544H1092.59L1082.34 331.206H1027.76L1017.51 349.544H991.375L1040.61 260.742H1069.49L1118.73 349.544ZM1071.08 311.135L1055.05 281.824L1039.02 311.135H1071.08Z" fill="#FF4202"/>
<path d="M973.25 303.194C981.48 308.536 985.379 314.89 985.379 323.12C985.379 338.426 971.806 349.544 949.858 349.544H870.586V260.742H947.403C958.088 260.742 967.907 264.785 974.26 271.427C978.448 275.759 980.758 281.535 980.758 287.166C980.758 293.664 978.448 298.573 973.25 303.194ZM946.681 295.252C951.879 295.252 955.2 292.364 955.2 288.321C955.2 284.134 951.446 280.813 946.104 280.813H895.999V295.252H946.681ZM950.58 329.473C955.778 329.473 959.677 326.008 959.677 321.387C959.677 317.2 955.922 313.879 950.291 313.879H895.999V329.473H950.58Z" fill="#FF4202"/>
<path d="M846.873 304.928C846.873 318.068 841.386 329.33 830.845 337.561C819.438 346.513 802.978 352 784.64 352C766.157 352 749.696 346.513 738.289 337.561C727.749 329.33 722.262 318.068 722.262 304.928C722.262 291.932 727.749 280.814 738.434 272.439C749.985 263.343 766.302 258 784.64 258C802.833 258 819.15 263.343 830.701 272.439C841.386 280.814 846.873 291.932 846.873 304.928ZM820.738 304.928C820.738 289.189 806.587 277.926 784.64 277.926C762.403 277.926 748.252 289.045 748.252 304.928C748.252 321.1 762.114 332.074 784.64 332.074C806.876 332.074 820.738 321.1 820.738 304.928Z" fill="#FF4202"/>
<path d="M712.43 349.544H618.719V260.742H644.132V329.473H712.43V349.544Z" fill="#FF4202"/>
<path d="M596.922 304.061C596.922 317.49 591.146 329.186 580.172 337.561C568.476 346.513 551.727 352 532.522 352C514.184 352 497.724 346.513 486.172 337.416C475.487 329.041 470 317.923 470 304.928C470 292.077 475.631 280.959 486.316 272.584C497.868 263.487 514.473 258 532.522 258C554.326 258 571.653 264.065 584.648 276.194L558.369 285.579C550.571 280.525 542.63 278.215 533.533 278.215C510.141 278.215 495.124 289.767 495.124 304.928C495.124 320.089 510.43 331.785 532.522 331.785C551.149 331.785 563.567 326.731 570.209 316.19H527.613V297.275H596.922V304.061Z" fill="#FF4202"/>
</svg>
